<?xml version="1.0" encoding="UTF-8"?>
<svg id="Layer_1" data-name="Layer 1" xmlns="http://www.w3.org/2000/svg" viewBox="0 0 310.52 491.06">
  <defs>
    <style>
      .cls-1 {
        fill: #fff;
      }
    </style>
  </defs>
  <path id="alcoholism" class="cls-1" d="M114.52,207.29c-.14,1.82-1.15,4.79-1.13,8.16.04,6.9,1.28,15.47,1.28,19.2,0,4.73-1.63,12.63,3.85,15.3,4.55,2.22,18.85-3.15,23.3-5.83,3.92-2.36,8.8-7.91,14.47-10.03,6.81-2.55,12.83-7.95,20.08-8.68,9.98-1,9.98-8.81,16.64-13.82,4.8-3.61,8.77-4.16,15.01-4.65,3.06-.24-13.15-10.62-28.77-8.29-4.82.72-13.49-3.66-22.38-6.76-6.82-2.38-13.89-3.63-18.65-3.61-15.62.06-23.08,10.72-23.7,19Z"/>
</svg>