<?xml version="1.0" encoding="UTF-8"?>
<svg id="Layer_1" data-name="Layer 1" xmlns="http://www.w3.org/2000/svg" viewBox="0 0 310.52 491.06">
  <defs>
    <style>
      .cls-1 {
        fill: #fff;
      }
    </style>
  </defs>
  <g id="athleticism">
    <g>
      <path class="cls-1" d="M123.86,359.05c-13.26-7.26-32.91-20.72-40.11-23.53-7.67-2.99-18.02-5.93-29.16-8.53-7.76-1.81-17.08-4.62-23.96-4.66-8.4-.06,27.85,14.72,36.17,20.38,7.36,5.01,13.7,12.79,21.6,16.45,7.24,3.35,9.78,5.35,20.74,7.31,10.56,1.89,18.55-5.33,14.74-7.41Z"/>
      <path class="cls-1" d="M30.08,309.25c-.29,5.4,37.12,11.04,44.73,11.5,8.1.49,18.94-.6,26.38-.76,3.3-.07,8.46,1.07,9.06,1.14,5.81.67-12.42-8.71-19.47-12.08-8.7-4.15-15.97-6.87-24.44-7.93-7.76-.97-9.63-1.04-20.69.48-10.66,1.47-15.24,1.27-15.58,7.65Z"/>
      <path class="cls-1" d="M112.51,378.17c2.44-.09-5.34-9.4-21.76-16.94-10.33-4.74-19.86-13.81-22.85-16.03-6.84-5.04-13.44-7.11-19.65-10.51-4.01-2.19-7.65-3.76-8.2-4.07-5.22-3.01,10.38,10.09,15.97,16.16,6.89,7.48,12.95,12.65,20.54,17.12,6.95,4.1,7.5,4.79,18.25,7.88,10.37,2.98,12.31,6.59,17.7,6.39Z"/>
      <path class="cls-1" d="M94.16,328.08c6.59,3.38,10.6,3.69,17.81,6.51,11.35,4.43,13.46,1.08,20.32.43,3.3-.32-5.33-7.1-12.38-10.47-8.69-4.15-32.5.08-25.75,3.53Z"/>
      <path class="cls-1" d="M83.92,399.08c-2.11,1.83-15.95-17.1-19.51-23.22-2.47-4.24-13.05-19.39-16.22-23.1-7.79-9.13-14.54-21.18-17.6-26.99-1.12-2.13-1.8-2.93-1.14-3.63,2.37-2.48,3.08-.85,6.25-7.07,1.16-2.28,10.81,9.85,13.86,13.77,4.34,5.59,6.11,7.99,9.58,14.13,6.27,11.07,12.58,20.99,18.36,31.7,4.63,8.58,14.92,22.54,12.02,23.35-2,.56-12.31-18.81-14.38-22.4-1.69-2.93-8.07-13.41-10.48-12.69-2.13.63,2.24,7.91,2.86,8.75,2.37,3.25,4.16,7.05,6.16,10.55,1.84,3.21,11.23,15.99,10.25,16.84Z"/>
      <path class="cls-1" d="M90.67,393.63c-2.59-.15-27.91-47.96-33-54.94-2.85-3.91-8.71-12.07-14.03-17.82-4.35-4.71-8.48-8.29-8.55-9.12-.38-4.1,18.16,15.54,24.2,23.01,5.66,7.01,26.44,44.01,31.12,55.49.68,1.67,1.78,3.46.26,3.37Z"/>
      <path class="cls-1" d="M80.96,406.8c-2.34-2.18-9.76-13.87-20.37-28.88-3.19-4.52-7.43-8.76-10.31-12.99-5.9-8.64-9.5-14.45-11.13-16.69-1.74-2.39-5.99-11.79-9.3-17.68-2.11-3.75-4.69-6.7-3.86-7.03,3.28-1.33,6.42,8.61,13.51,18.98,1.97,2.88,7.68,9.79,14.49,19.24,5.12,7.1,10.53,16.24,15.51,23.41,5.88,8.47,11.17,15.79,13.14,19.62.99,1.93.42,3.95-1.66,2.01Z"/>
      <path class="cls-1" d="M58.76,381.74c.46,1.61.29,4.28-5.8-1.84-4.55-4.58-21.25-21.12-27.04-33.03-2.81-5.77-7.21-19.01-7.28-19.84-.16-1.74,3.19,3.28,7.71,5.63,3.12,1.62,6.05,4.53,7.95,8.19,8.14,15.7,22.77,34.96,24.46,40.89Z"/>
    </g>
    <g>
      <path class="cls-1" d="M186.77,388.78c13.26-7.26,32.91-20.72,40.11-23.53,7.67-2.99,18.02-5.93,29.16-8.53,7.76-1.81,17.08-4.62,23.96-4.66,8.4-.06-27.85,14.72-36.17,20.38-7.36,5.01-13.7,12.79-21.6,16.45-7.24,3.35-9.78,5.35-20.74,7.31-10.56,1.89-18.55-5.33-14.74-7.41Z"/>
      <path class="cls-1" d="M280.56,338.97c.29,5.4-37.12,11.04-44.73,11.5-8.1.49-18.94-.6-26.38-.76-3.3-.07-8.46,1.07-9.06,1.14-5.81.67,12.42-8.71,19.47-12.08,8.7-4.15,15.97-6.87,24.44-7.93,7.76-.97,9.63-1.04,20.69.48,10.66,1.47,15.24,1.27,15.58,7.65Z"/>
      <path class="cls-1" d="M198.13,407.89c-2.44-.09,5.34-9.4,21.76-16.94,10.33-4.74,19.86-13.81,22.85-16.03,6.84-5.04,13.44-7.11,19.65-10.51,4.01-2.19,7.65-3.76,8.2-4.07,5.22-3.01-10.38,10.09-15.97,16.16-6.89,7.48-12.95,12.65-20.54,17.12-6.95,4.1-7.5,4.79-18.25,7.88-10.37,2.98-12.31,6.59-17.7,6.39Z"/>
      <path class="cls-1" d="M216.48,357.8c-6.59,3.38-10.6,3.69-17.81,6.51-11.35,4.43-13.46,1.08-20.32.43-3.3-.32,5.33-7.1,12.38-10.47,8.69-4.15,32.5.08,25.75,3.53Z"/>
      <path class="cls-1" d="M226.72,428.8c2.11,1.83,15.95-17.1,19.51-23.22,2.47-4.24,13.05-19.39,16.22-23.1,7.79-9.13,14.54-21.18,17.6-26.99,1.12-2.13,1.8-2.93,1.14-3.63-2.37-2.48-3.08-.85-6.25-7.07-1.16-2.28-10.81,9.85-13.86,13.77-4.34,5.59-6.11,7.99-9.58,14.13-6.26,11.07-12.58,20.99-18.36,31.7-4.63,8.58-14.92,22.54-12.02,23.35,2,.56,12.31-18.81,14.38-22.4,1.69-2.93,8.07-13.41,10.48-12.69,2.13.63-2.24,7.91-2.86,8.75-2.37,3.25-4.16,7.05-6.16,10.55-1.84,3.21-11.23,15.99-10.25,16.84Z"/>
      <path class="cls-1" d="M219.96,423.35c2.58-.15,27.91-47.96,33-54.94,2.85-3.91,8.71-12.07,14.03-17.82,4.35-4.71,8.48-8.29,8.55-9.12.38-4.1-18.16,15.54-24.2,23.01-5.66,7.01-26.44,44.01-31.12,55.49-.68,1.67-1.78,3.45-.26,3.37Z"/>
      <path class="cls-1" d="M229.68,436.52c2.34-2.18,9.76-13.87,20.37-28.88,3.19-4.52,7.43-8.76,10.31-12.99,5.9-8.64,9.5-14.45,11.13-16.69,1.74-2.39,5.99-11.79,9.3-17.68,2.11-3.75,4.69-6.7,3.86-7.03-3.28-1.33-6.42,8.61-13.51,18.98-1.97,2.88-7.68,9.79-14.49,19.24-5.12,7.1-10.53,16.24-15.51,23.41-5.88,8.47-11.17,15.79-13.13,19.62-.99,1.93-.42,3.95,1.66,2.01Z"/>
      <path class="cls-1" d="M251.87,411.46c-.46,1.61-.29,4.28,5.8-1.84,4.55-4.58,21.25-21.12,27.04-33.03,2.81-5.77,7.21-19.01,7.28-19.84.16-1.74-3.19,3.28-7.71,5.63-3.12,1.62-6.05,4.53-7.95,8.19-8.14,15.7-22.77,34.96-24.46,40.89Z"/>
    </g>
  </g>
</svg>