<?xml version="1.0" encoding="UTF-8"?>
<svg id="Layer_1" data-name="Layer 1" xmlns="http://www.w3.org/2000/svg" viewBox="0 0 310.52 491.06">
  <defs>
    <style>
      .cls-1 {
        fill: #fff;
      }
    </style>
  </defs>
  <path id="depression" class="cls-1" d="M217.33,74.25c1-6.03-2.19-12.59-5.25-21.08-2.04-5.65-6.73-8.12-8.08-11.17-.54-1.21-6.21-4.08-8.72-3.46-1.01.25-1.9,2.08-2.9,2.83-2.14,1.6-4.86,3.47-6.42,5.04-1.64,1.64-2.06,2.94-2.14,2.14-.21-2.16,5.05-4.72,7.76-8.05.84-1.04,1.44-2.14,1.56-3.34.4-4.16-4.73-6.68-6.63-7.8-2.74-1.62-3.73-7.04-5.8-5.11-.35.33-.84,2.05-.62,3.38.5,3.09,2.88,3.6,2.9,4.35,0,.44-1.65-.19-2.07-.76-2.01-2.73-1.84-7.33-4.9-5.59-1.46.83.65,5.69,2.21,8.9.33.69,1.69,2.3,3.45,2.97.78.3,3.1-.37,3.94-.21,1.3.26-.81,1.21-4.49,1.93-1.14.22-.94-.59-1.45-1.66-.5-1.04-1.72-2.32-2.09-2.87-.73-1.09-1.51-2.47-2.12-4.24-.75-2.19-.51-5.93-1.8-7.73-2.19-3.06-6.78-3.38-8.01-3.4-2.58-.05-5.17,1.17-7.17,3.08-1.88,1.8-.04,4.75-1.5,9.25-.71,2.2-1.47,5.73-3.08,7.83-2,2.6-4.83,3.82-4.83,7.08,0,4,.67,7.09,4.84,8.09,4.73,1.14,16.44,5.89,16.87,7.7.54,2.3-8.13-4.66-6.04,2.55.94,3.23,7.07,3.17,12.42,2.35,3.05-.46,6.63.17,7.77-.97,1.33-1.34,1.81-5.45,3.11-5.43.7.02-1.6,4.57-1.83,5.33-.45,1.48.4,4.08,0,4.29-.67.34-.71-1.85-1.48-2.19-1.45-.63-5.91-.18-8.73.23-8.92,1.3-9.99-1.59-10.84.96-.76,2.27,5.77,4.11,7.13,4.25,4.94.51,12.81-3.17,16.2-2.26,3.86,1.04,3.66,1.04,7.2,3.15,5.3,3.16,3.39,6.93,7.89,10.6.61.5,3.8.75,5.93,2,2.1,1.24,2.12-.94,2.84-.19.36.38-.62,1.06-.91,1.44-2.19,2.91-3.03,2.16-1.97.5.93-1.44-5.34-3.34-4.91-2.12,1.19,3.3-.08,9.18-2.87,11.77-.42.39-1.1.28-1.04-.04.14-.73,1.71-2.88,1.79-5.01.04-1.02-.72-2.56-1.1-3.18-.45-.7-3.96.4-4.76.54-1.83.32,4.28-2.52,4.11-3.79-.04-.34-.34-.93-.67-1.06-.68-.28-3.2,1.69-3.23,1.48-.04-.3,2.91-2.77,3.1-3.46.36-1.3-.51-2.05-.79-2.48-.05-.07-.75.09-1.21-.28-.46-.37-.67-1.26-1.28-1.21-1.09.08-2.17,1.69-3.42,1.78-.32.02-2.26,1.66-2.45,3.09-.12.85.45,1.04.17,1.48-.13.22-.26-.13-.55-.43-.06-.06-2.48,4.47-2.79,4.29-.74-.43,2.29-4.64,2.06-4.65-.87-.04-2.34.4-2.22.17.39-.7,1.9-.74,2.38-.85,1.12-.26,1.42-3,1.22-3-.36,0-.67-.01-.93-.04-1.8-.21,2.52-1.69,1.52-2.55-.57-.49,1.21-1.17,1-1.73-.29-.79-.86-.24-1-.41-.35-.41.83-1.86.14-2.55-.3-.3-.68-.02-.86-.28-.53-.74-.77-1.23-1.66-1.31-1.55-.14-.83,5.59-1.69,5.25-1-.4.76-4.27-.21-4.35-1.21-.1-1.04,4.52-1.9,4.07-.63-.33,1.14-5.04.51-5.26-1.26-.45-2.62.08-3.03.67-.46.66.38,6.64.1,6.63-.38-.02-1.68-6.63-2.04-6.6-5.37.47-9,5.95-8.97,11.27.01,3.48-.37,5.87,2.21,8.3,2.33,2.19,8.27,1.19,4.97,2.53-2.21.9-3.25,2.86-2.94,4.35.28,1.33.67,4.84.99,6.07.9,3.44,3.2,2.86,6.54,3.18,3.77.37,8.03-1.6,11.15-3.28.85-.46,5.18-4.02,10.51-5.94.83-.3,2.87.59,4.22-.4,1.02-.74,1.99-1.93,2.83-3.17.35-.52.68-1.04.99-1.55.72-1.2,1.3-2.3,1.68-2.95,4.08-7,1.49-13.73,2.17-17.75ZM161.98,45.62c-2.03,1.57-1.86,1.97-2.54,1.76-.57-.18.64-1.01.98-1.48,2.87-4.01,6.73-6.91,8.22-10.94.64-1.73-.22-6.01-.41-9.01-.07-1.1-.96-3.95-.46-3.63,1.81,1.14,1.82,5.29,2.35,7.69.42,1.9.29,3.34.03,6.13-.07.76,1.71.57,3.26,1.04,1.44.43,4.4,1.74,5.08,3.16.91,1.92-2.85-1.61-6.39-1.87-2.89-.21-4.71.57-6.35,2.96-.85,1.25-2.01,2.82-3.78,4.19ZM177.22,61.69c-2.21-1.86-1.51-3.85-4.45-4.16-2.09-.22-6.91,1.74-9.02-.66-.94-1.06,1.87.5,3.12.44,2.28-.11,6.48-1.42,7.98-.45,1.4.91,3.41,5.7,2.37,4.82ZM182.44,61.33c-.99.89.22-3.36.07-6.42-.1-2.09-3.42-3.18-4.42-3.73-2.22-1.22-5.93-2.06-7.14-1.11-.84.66-4.32,4.7-3.98,2.77.04-.2,3.04-2.55,3.45-4.07.26-.94-1.41-5.7.21-5.73.62-.01.34,5.26,1.72,5.41,1.4.16,3.45.77,5.94,1.49,2.13.62,4.65,3.59,6.7,1.93,4.87-3.94,9.46-5.27,11.18-4.76,1.11.33-6.67,2.53-10.77,6.08-2.68,2.31-2.2,7.46-2.97,8.15ZM208.95,68.42c-1.67,2.19-.64,6.62-2.01,7.33-1.25.66-6.72-2.6-6.47-3.06.65-1.19,5.35,2.3,5.94,1.1.5-1.03,1-4.95,1.22-7.82.31-4.16-2.58-5.27-4.87-6.38-.89-.43-2.16-1.67-3.22-1.64-.71.02-1.21,1.04-1.94,1.54-2.14,1.46-2.45.14-3.48,1.33-.51.59-1.37,2.58-1.75,3.12-1.22,1.73-3.37,2.73-2.24,1.54.58-.62,2.65-3.97,2.34-4.94-.75-2.35-4-3.97-5.19-3.94-2.55.07-2.27-.98.57-1.13,1.37-.07,3.83,2.6,5.72,3.59,1.14.59,2.31-.12,3.02-.52.47-.26,1.78-1.46,1.27-2.27-1.18-1.89-5.37-4.09-4.65-5.1.73-1.02,4.65,3.79,6.15,5.15.68.61,7.76,4.75,8.71,4.62.64-.08,1.57-5.27,1.09-6.87-.52-1.73-2.66-3.29-4.16-5.35-1.53-2.09-2.41-4.66-1.87-4.42.57.26,1.37,2.27,2.61,3.75,1.58,1.89,3.63,3.52,4.22,6.15.7,3.07-.57,5.52-.8,7.16-.35,2.58-.45,4.99.59,5.82,1.62,1.31,5.16.62,5.16,2,0,1.32-5.61-1.23-5.96-.77Z"/>
</svg>