<?xml version="1.0" encoding="UTF-8"?>
<svg id="Layer_1" data-name="Layer 1" xmlns="http://www.w3.org/2000/svg" viewBox="0 0 310.52 491.06">
  <defs>
    <style>
      .cls-1 {
        opacity: .7;
      }

      .cls-1, .cls-2 {
        fill: #fff;
      }
    </style>
  </defs>
  <g id="eyecolor">
    <path class="cls-1" d="M95.16,91.88c0,2.13-.82,3.85-1.83,3.85s-1.83-1.72-1.83-3.85.82-3.85,1.83-3.85,1.83,1.72,1.83,3.85Z"/>
    <path class="cls-2" d="M94.96,91.94c0,1.69-.55,3.06-1.24,3.06s-1.24-1.37-1.24-3.06.55-3.06,1.24-3.06,1.24,1.37,1.24,3.06Z"/>
    <path class="cls-2" d="M92.18,97.8c-.57-.12-1.92-3.23-1.92-5.74s1.11-5.84,1.83-6.03c.62-.17.34,2.84.21,3.63-.12.78-.21-.08-.23-.15-.1-.5-.15-1.88-.68-.56-.3.76-.29,1.76-.38,3.15-.07,1.11.37,3.37.87,3.36.23,0,.05-.99.2-1.13.14-.13.82,3.63.1,3.48Z"/>
    <path class="cls-1" d="M113.67,94.3c-1.85,5.16-6.57,7.65-11.23,7.56-3.55-.06-7.04-1.52-9.26-4.88,0,0-1.01-.76-.96-.99.16,0,.46.28.4.14-.27-.63-.62-2.33-.29-1.67.32.63,1.2,2.71,1.61,2.66.3-.04-.12-.81.32-.56.48.27.56,1.09.69,1.66,1.99,2.08,4.8,3.17,7.65,3.28,3.31.12,6.59-1.12,8.82-3.66.82-.94,1.55-2.04,2.03-3.33.02-.06.05-.11.06-.17.19-1.01.38-3.46.16-4.28-.02-.08-.04-.15-.07-.22-.47-1.49-1.27-2.75-2.19-3.79-2.23-2.54-5.5-3.78-8.82-3.66-2.85.1-5.66,1.2-7.65,3.28-.13.58-.21,1.39-.69,1.66-.45.25-.02-.52-.32-.56-.41-.05-1.28,2.03-1.61,2.66-.33.66.01-1.04.29-1.67.06-.14-.24.15-.4.14-.05-.24.96-.99.96-.99,2.22-3.37,5.71-4.82,9.26-4.88,4.68-.08,9.44,2.43,11.26,7.66.04.12.11.23.12.36.08.9.22,2.45-.11,3.93-.04.18-.03.31-.05.36Z"/>
  </g>
</svg>