<?xml version="1.0" encoding="UTF-8"?>
<svg id="Layer_1" data-name="Layer 1" xmlns="http://www.w3.org/2000/svg" viewBox="0 0 310.52 491.06">
  <defs>
    <style>
      .cls-1 {
        fill: #fff;
      }
    </style>
  </defs>
  <g id="height">
    <path class="cls-1" d="M77.47,400.11c-1.77-1.79-2.95-5.92-5-8.63-2.3-3.04-4.81-6.54-7.63-10.23-7.66-10.01-16.82-21.63-23.74-31.16-5.62-7.74-12.89-7.87-10.55-15.17.75-2.34,3.62-3.66,8.07-4.08,8.45-.79,5.85,7.69,12.46,19.34,6.63,11.67,12.24,18.26,20.92,29.71,1.88,2.48,4.85,6.83,8.34,9.8,4.38,3.73,9.12,6.11,8.1,9.05-.48,1.4-2.35,2.38-4.61,2.28-1.81-.08-4.57.91-6.36-.91Z"/>
    <path class="cls-1" d="M78.8,386.02c-2.02-4.95-17.54-25.19-21.58-31.69-1.37-2.2-4.85-6.4-7.36-10.76-2.06-3.58-3.24-7.28-3.96-9.94-.7-2.6,2.44-4.02,2.9-3.88,1.08.32,4.14,8.5,8.44,15.71,4.5,7.56,10.32,14.3,14.56,20.85,2.67,4.13,12.77,21.85,15.2,26.4.89,1.67-.86.33-3.17-1.49-1.85-1.46-4.13-2.99-5.04-5.21Z"/>
    <path class="cls-1" d="M46.67,319.72c1.14-2.41.63-5.27,1.59-7.63.76-1.86,2.22-2.9,3.99-3.58.83-.32,1.5-.9,2.62-.81,4.93.4,4.76,3.87,8.75,8.79,3.29,4.07,10.75,9.61,13.35,12.03,9.57,8.91,18.15,17.81,27.68,26.37,1.78,1.6,4.15,3.11,5.88,4.71,2.74,2.54,6.92,2.96,8.99,6.05,1.54,2.3-.77,2.46-.48,4.52.19,1.4,3.42,1.34,3.82,3.51.43,2.34-3.21,4.78-5.38,4.74-1.54-.03-3.46-.5-5.37-1.41-3.84-1.82-2.12-4.76-3.9-5.98-1.86-1.27-5.34.14-6.27-.98-4.94-6.02,2.51-4.52-9.15-15.25-5.43-5-14.97-15.14-23.5-22.23-3.03-2.52-10.38-5.7-12.84-6.47-2.71-.85-4.7.65-6.48.11-1.84-.56-3.95-5.1-3.28-6.51Z"/>
    <path class="cls-1" d="M228.58,431.11c1.77-1.79,2.95-5.92,5-8.63,2.3-3.04,4.81-6.54,7.63-10.23,7.66-10.01,16.81-21.63,23.74-31.16,5.62-7.74,12.89-7.87,10.55-15.17-.75-2.34-3.62-3.66-8.07-4.08-8.46-.79-5.85,7.69-12.46,19.34-6.62,11.67-12.24,18.26-20.92,29.71-1.88,2.48-4.85,6.83-8.34,9.8-4.38,3.73-9.12,6.11-8.1,9.05.48,1.4,2.35,2.38,4.61,2.28,1.81-.08,4.57.91,6.36-.91Z"/>
    <path class="cls-1" d="M227.25,417.02c2.02-4.95,17.54-25.19,21.58-31.69,1.37-2.2,4.85-6.4,7.36-10.76,2.06-3.58,3.24-7.28,3.96-9.94.7-2.6-2.44-4.02-2.9-3.88-1.08.32-4.14,8.5-8.44,15.71-4.5,7.56-10.32,14.3-14.56,20.85-2.67,4.13-12.78,21.85-15.2,26.4-.89,1.67.86.33,3.17-1.49,1.85-1.46,4.13-2.99,5.04-5.21Z"/>
    <path class="cls-1" d="M266.42,353.2c-.66-2.58.39-5.29-.1-7.79-.39-1.97-1.62-3.27-3.23-4.27-.76-.47-1.3-1.17-2.42-1.3-4.92-.55-5.42,2.89-10.27,6.96-4.01,3.36-12.39,7.38-15.4,9.26-11.09,6.91-21.22,14.01-32.21,20.59-2.05,1.23-4.67,2.26-6.67,3.5-3.18,1.97-7.36,1.59-9.98,4.22-1.95,1.96.28,2.56-.39,4.53-.46,1.34-3.61.66-4.42,2.72-.87,2.21,2.24,5.3,4.37,5.68,1.51.27,3.49.17,5.54-.35,4.12-1.05,2.99-4.27,4.97-5.12,2.07-.89,5.22,1.16,6.34.23,6-4.97-1.6-4.92,11.9-13.22,6.29-3.87,17.59-11.99,27.32-17.32,3.45-1.89,11.28-3.61,13.84-3.89,2.82-.32,4.49,1.54,6.34,1.35,1.91-.2,4.85-4.25,4.46-5.76Z"/>
    <path class="cls-1" d="M191.74,339.93c-.68-5.14-2.05-9.13-4.19-10.41-1.6-.96-3.09-.13-5.48,1.15-2.12,1.13-1.59.23-1.7-1.05-.12-1.51-3.88-.24-3.96-1.32-.07-.98,1.82-1.79,4.27-2.33,2.13-.47,4.77-.43,5.96-4,.54-1.6-2.42-3.58-6.99-.52-.7.47-.91-2.56-1.6-2.99-1.86-1.16-3.21-3.9-3.33-6.58-.07-1.65,8.88,1.19,9.17-2.96.21-3-3.57-2.93-8.31-2.29-1.06.14-.04-1.82-.62-2.52-.58-.71-1.72-.29-1.74-.66-.11-1.9-.23-4.25-.33-6.24-.1-2.02,11.09.41,10.85-4.64-.15-3.25-11.32.4-11.25-1.42.05-1.57.49-2.96.37-4.56-.13-1.83-.97-3.88-1.11-5.74-.09-1.18,10.02,2.4,10.27-2.87.13-2.73-9.54-1.06-9.67-2.47-.13-1.37.81-2.38.7-3.77-.12-1.51-1.26-3.4-1.37-4.92-.07-.94,7.51.11,7.34-2.83-.19-3.33-6.16-1.58-6.18-2.62-.11-5.5.12-3.59-.12-6.56-.1-1.22,3.55-2.01,3.46-5.15-.1-3.66-3.96-.98-4.06-2.22-.09-1.08-.12-2.16-.26-3.22-.6-4.54,4.64-5.37,4.49-7.11-.58-6.56-4.63,1.36-5.38-3.91-.35-2.51,4.73-3.15,4.3-6.38-.76-5.64-4.78,2.76-5.05-3.2-.07-1.52,9.19-4.94,6.41-9.22-1.16-1.79-4.94,4.28-5.08.33-.06-1.76-.44-3.15-.07-3.94,1.33-2.9,5.3-.62,5.04-4.59-.3-4.44-5.21.34-5.46-2.48-.39-4.44,5.74-1.75,5.21-6.82-.12-1.2-2.15-1.35-3.46-.72-1.56.75-2.22,2.23-2.2-.85.04-4.45,5.68-1.37,5.39-4.8-.46-5.34-6.57-.15-6.78-2.78-.44-5.54,4.27-1.48,4.05-5.92-.16-3.17-2-2.63-3.69-1.92-1.44.6-2.57,1.48-2.72-1.45-.19-3.64,6.83.02,6.8-5.04-.04-5.97-8.32,2.52-7.94-2.48.06-.83,0-2.76,1.43-3.44,1.76-.84,4.19,1.28,4.09-2.56-.14-5.2-5.8-1.46-5.99-3.13-.55-5.07,8.69-1.89,8.09-5.22-1.19-6.63-7.81-.34-7.81-.77,0-.57.87-3.66,2.6-4.76,2.83-1.79,7.67,3.67,7.59-3.11-.04-3.81-9.68,1.17-9.76-1.55-.07-2.53,6.08.03,7.2-3.23.51-1.47.22-2.32.09-3.62-.05-.5,1.08-1.26,1.06-1.85-.08-3.13-7.19-.31-7.13-4.53.02-1.44-13.15-1.83-13.33-.49-.51,3.76-7.96,1.02-7.53,5.76.32,3.53,6.69-.65,6.99.32.27.9-9.84.81-8.98,4.16,1.13,4.42,7.6.99,7.72,2.14.45,4.52-9.41-1.31-9.18,3.66.21,4.71,6.46-.19,6.27,3.45-.07,1.32,2.27,1.89,2.28,2.77,0,1.08-8.08-2.41-7.83,1.63.36,5.76,8.12,1,7.91,5.86-.11,2.43-8.03-3.14-8,2.13.03,4.75,8.95,2.12,9.05,7.38.03,1.44-6.24-3.75-6.51,1.51-.26,5.25,7.71,1.01,7.64,6.57-.02,1.7-7.91-3.85-7.91,2.44,0,2.33,4.63,3.67,6.81,2.1,1.2-.87,3.39,1.97,3.4,2.14.28,4.19.83,3.12-.87,2.07-2.08-1.29-6.42-2.65-5.6,2.27.6,3.62,7.99,1.1,7.86,5.25-.05,1.49-7.12-2.09-7.32,1.14-.33,5.27,6.96,2.8,7.46,6.75.34,2.69-6.55-2.3-6.88,2.27-.34,4.73,8.2,2.54,7.47,7.02-.58,3.53.11,2.99-1.26,2.16-1.58-.96-4.71-2.11-4.62,1.03.11,4.04,3.75,2.65,4.07,7.63.28,4.45-1.11,1.93-2.7,1.18-1.33-.62-2.91.61-2.77,2.4.11,1.41,5.21,3.91,5.2,5.32,0,.73.4,2.35-.43,2.84-1.42.85-4.37-.7-4.28,2.54.1,3.74,4.99,1.09,4.8,5.43-.06,1.43-.12,2.85-.18,4.28-.04,1.01-2.87-.31-3.13.67-.83,3.16,2.93,4.51,2.89,5.59-.07,2.06-1.49,4.2-1.54,6.26-.06,2.12-9.11.02-7.96,5.07,1.6,7.04,8.8-3.88,8.28,3.12-.15,2.05-1.12,3.47-.82,7.3.06.77-9.36-.39-8.89,3.85.4,3.63,8.53.17,8.53,1.09,0,1.51-1.24,2.86-1.14,4.38.24,3.63-.83,4.12-.82,5.68,0,1.24-8.62-1.49-8.32,2.95.33,4.75,9.66,1.29,9.67,2.27.02,1.64-1.42,3.71-1.39,5.37.02.97-1.95,1.6-1.93,2.58.01.5,1.18,2.18-.14,2.43-3.21.61-6.81.04-6.3,3.46.32,2.17,1.67,2.61,4.81,2.2,3.14-.41,5.79-.54,5.8-.16.05,1.72,1.11,3.45,1.16,5.19.02.62-3.62-.64-3.59,4.31,0,1.22-7.94-3.01-6.59,3.11,1.15,5.23,9.42,1.25,9.58,2.68.26,2.32-4.51,1.06-5.02,1.55-1.3,1.25,1.71,3.6-1.11,3.91-1.63.18-3.53-2.26-5.04-1.89-.9.22-1.04,1.38-1.83,2.34-.64.78-1.94,1.28-2.41,2.27-.57,1.22-.98,2.5-1.15,3.62-.33,2.19.45,3.93.48,5.38.05,2.05-.48,3.5.09,4.6,1.42,2.73,4.06,3.42,6.01,6.7,1.67,2.8,2.08,6.12,3.31,7.73.88,1.15,2.32,2.35,3.2,3.82,1.2,2,1.84,4.35,3.13,6.26,1.39,2.04,5.87,4.02,7.17,6.01.81,1.24-1.86,2.12-1.13,3.27.82,1.27,1.77.32,2.47,1.42,1.18,1.88,1.92,4.93,2.7,6.47.75,1.5,2.28,1.94,2.48-.83.12-1.62,1.26-3.22,2.13-4.71.81-1.38,1.97-2.1,2.91-3.6.66-1.06-1.1-2.14-.39-3.25,1.08-1.7,4.67-3.45,5.8-5.23.63-.99.13-3.19,1.11-3.86,3.04-2.11,4.27-4.82,5.84-7.67,1.1-1.98.7-4.48,1.6-6.42,1.2-2.57,3.61-4.54,4.3-6.94.91-3.14,1.29-6.08.95-8.71ZM149.65,349.97s2.39-3.06,3.35-3.39c.27-.09,3.54.3,3.66.77.14.54-2.72,2.04-3.12,2.04-1.1,0-3.35.1-3.89.59ZM154.27,353.55c.27-.09,3.54.3,3.66.77.14.54-2.72,2.04-3.12,2.04-1.1,0-3.35.1-3.89.59,0,0,2.38-3.06,3.35-3.39ZM153.27,363.43s1.96-2.52,2.76-2.79c.22-.08,2.92.25,3.02.63.12.45-2.24,1.68-2.57,1.68-.91,0-2.76.08-3.2.48ZM159.33,370.87c-.2.11-2.91.28-3.08-.08-.19-.42,1.9-2.05,2.23-2.11.89-.16,1.59,1.78.86,2.19ZM173.99,370.79c-.28.19-2.91.49-3.07.06-.13-.37,1.91-2.16,2.14-2.22.81-.22,3.85.76,3.85.76-.6-.08-2.17.89-2.92,1.4ZM176.12,361.95c-.33.02-2.75-1.09-2.66-1.54.08-.39,2.75-.86,2.98-.79.81.23,2.9,2.64,2.9,2.64-.46-.38-2.32-.36-3.23-.31ZM177.37,354.73c-.4.02-3.34-1.32-3.22-1.87.1-.47,3.34-1.04,3.62-.96.98.28,3.53,3.21,3.53,3.21-.57-.46-2.82-.44-3.92-.38ZM178.58,346.88c-.4.02-3.34-1.32-3.22-1.87.1-.47,3.34-1.04,3.62-.96.98.28,3.52,3.21,3.52,3.21-.56-.46-2.82-.44-3.92-.38Z"/>
  </g>
</svg>