<?xml version="1.0" encoding="UTF-8"?>
<svg id="Layer_1" data-name="Layer 1" xmlns="http://www.w3.org/2000/svg" viewBox="0 0 310.52 491.06">
  <defs>
    <style>
      .cls-1 {
        fill: #fff;
      }
    </style>
  </defs>
  <g id="hemophilia">
    <path class="cls-1" d="M261.05,210.85c1.57-.19,11.51-3.48,12.66-3.69,2.93-.53,5.13.83,1.95-5.67-1.65-3.37-4.18-6.16-6.84-9.21-1.55-1.78-3.25-2.46-4.56-4.42-1.43-2.14-1.77-2.81-3.39-4.76-2.28-2.73-8.01-9.69-8.58-10.34-3.46-3.95-6.41-8.03-10.53-11.6-2.57-2.23-12.75-11.15-16.41-13.41-4.73-2.93-12.34-6.45-17.59-7.36-3.12-.54-6.31-1.57-9.37-1.66-3.95-.12-7.03,1.27-9.32,4.01,4.02,1.07,6.15-1.88,10.45-.81,5.54,1.38,10.95,1.93,16.2,4.21,4.64,2.01,12.26,7.24,17.47,11.98,4.05,3.68,6.88,6.56,4.17,10.63-1.79,2.67-5.48,4.76-6.28,8.01-.75,3.04-1.74,4.32-1.96,8.82-2.15-1.15-4.22-2.09-6.67-2.88-3.08-.98-4.2-1.45-6.63-3.81,1.17,4.21,6.63,6.24,10.85,7.29,2.39.6,12.63,13.96,16.44,13.25,2.61-.49,8.36,7.42,10.24,9.18,4.84,4.55,3.71,2.73,7.71,2.24ZM239.46,196.01c-4.34-3.25-8.02-7.13-8.08-8.59-.53-12.07,5.19-14.79,7.98-18.08,1.05-1.24,1.33-4.46,1.33-4.46,5.62,5.28,28.38,32.55,29.67,34.59.57.9,2.74,3.43,1.77,4.5-.43.47-14.7,5.64-16.58,2.29-.03-.06-3.58-4.23-9.7-8.54-1.31-.93-5.15-.78-6.39-1.71Z"/>
    <path class="cls-1" d="M270.51,170.5c-.32,1.19,2.22,10.91-.1,15.63-2.23-1.15-5.35-7.93-6.13-9.94-1.92-4.96-3.28-9.88-5.71-14.63-2.96-5.8-5.11-10.24-7.86-17.07-.81-2.01-3.71-6.5-3.65-5.65.19,2.56,3.28,8.61,3.89,10.17,2.5,6.45,4.34,9.84,6.95,16.29,2.44,6.02,6.5,19,11.65,23.39.73.62-.59,3.88-1.01,5.4-.3,1.11-8.04-3.29-8.77-3.69-1.89-1.03-2.04-5.36-3.15-8.68-1.21-3.59-5.15-15.05-6.47-18.02-1.21-2.72-2.66-7.11-3.59-7.98-2.39-2.23-4.74-6.87-4.58-5.97,1.09,5.79,3.92,7.24,5.21,10.63,1.48,3.88,3.81,12.26,5.14,16.12,1.62,4.71,4.94,11.09,3.76,16.18-.61,2.64-.52,2.12-.49,3.95.04,2.57.08,9.08.1,9.7.14,3.79,11.09,6.34,13.02,4.88,1.8-1.36,6.72-14.32,4.26-15.65-1.69-.92-1.61-4.23-.21-8.79,1.54-5.02,1.02-12.63-2.26-16.27ZM270.55,204.96c-.84,1.36-2.19,5.78-3.25,5.59-2.38-.43-7.65-1.07-9.7-3.83-1.96-2.64-.75-7.36-.71-10,.08-6.31,1.57-4.92,2.5-4.44,2.38,1.26,9.88,4.21,11.69,4.62,1.62.38.25,6.81-.52,8.06Z"/>
    <path class="cls-1" d="M89.81,239.47c.95-2.39,2.79-11.99,5.36-12.66,3.75-.98,7.33-17.42,9.25-18.98,3.37-2.75,7.45-6.91,6.72-11.21-1.19,3.16-2.02,4.06-4.38,6.26-1.88,1.75-3.35,3.49-4.81,5.44-2.12-3.98-3.56-4.72-5.53-7.15-2.11-2.61-6.33-2.93-9.09-4.58-4.19-2.52-2.85-6.33-.75-11.39,2.7-6.5,7.38-14.48,10.72-18.27,3.78-4.29,8.44-7.1,12.87-10.69,3.44-2.8,6.62-1.03,9.8-3.72-3.24-1.5-6.62-1.46-10.14.33-2.72,1.39-5.18,3.68-7.77,5.49-4.37,3.05-9.75,9.48-12.79,14.14-2.35,3.6-7.77,16.01-9.15,19.12-2.21,4.99-3.14,9.94-4.6,14.98-.24.83-2.46,9.57-3.37,13.01-.64,2.45-.67,3.2-1.05,5.75-.35,2.34-1.59,3.67-2.25,5.94-1.11,3.88-2.21,7.49-2.27,11.24-.12,7.24,1.3,5.07,4.18,4.3,1.12-.3,11.52-1.55,13.02-2.04,3.82-1.25,3.58.87,6.02-5.3ZM91.96,226.43c-3.71,6.5-5.14,11.79-5.15,11.85-.27,3.83-15.39,5.22-15.98,4.98-1.34-.56-.45-3.77-.32-4.83.3-2.4,9.3-36.76,12.14-43.92,0,0,1.62,2.79,3.11,3.47,3.93,1.8,10.26,1.83,14.91,12.97.56,1.35-1.11,6.42-3.66,11.21-.73,1.37-4.26,2.87-5.06,4.27Z"/>
    <path class="cls-1" d="M74.28,224.57c.77,4.7.4,8-1.4,8.68-2.62.99.5,14.49,2.1,16.09,1.71,1.71,12.91.66,13.56-3.07.11-.62,1.04-7.06,1.42-9.6.27-1.81.29-1.29.05-3.98-.47-5.21,3.68-11.07,5.92-15.52,1.84-3.65,5.29-11.64,7.28-15.28,1.74-3.18,4.74-4.23,6.6-9.83.29-.86-2.67,3.41-5.34,5.3-1.04.73-3.07,4.88-4.64,7.42-1.71,2.77-7.17,13.58-8.85,16.98-1.55,3.13-2.29,7.4-4.3,8.17-.79.3-9.04,3.6-9.19,2.47-.21-1.56-1.08-4.97-.27-5.49,5.7-3.65,11.48-15.96,14.71-21.59,3.46-6.03,5.74-9.14,9.09-15.19.81-1.46,4.7-7.04,5.23-9.55.18-.84-3.31,3.22-4.38,5.11-3.65,6.4-6.38,10.5-10.1,15.85-3.05,4.38-5.06,9.07-7.64,13.72-1.05,1.89-5.05,8.19-7.42,9.02-1.66-4.99,2.18-14.28,2.02-15.5-3.74,3.15-5.29,10.63-4.44,15.81ZM74.59,234.83c1.85-.17,9.67-2.07,12.21-3,.98-.36,2.65-1.52,1.88,4.73-.32,2.62.24,7.46-2.06,9.81-2.4,2.46-7.72,2.38-10.13,2.48-1.08.04-1.82-4.52-2.46-5.97-.59-1.34-1.08-7.9.58-8.06Z"/>
  </g>
</svg>