<?xml version="1.0" encoding="UTF-8"?>
<svg id="Layer_1" data-name="Layer 1" xmlns="http://www.w3.org/2000/svg" viewBox="0 0 310.52 491.06">
  <defs>
    <style>
      .cls-1 {
        fill: #fff;
      }
    </style>
  </defs>
  <path id="huntingtons" class="cls-1" d="M122.4,75.42c-1.25-4.61,1.04-10.74,7.72-15.28,5.55-3.77,14.65-4.84,18.87-4.65,13.5.59,22.32,14.91,7.37,23.9-4.42,2.66-8.76,5.16-10.48,7.18-.59.69-.8.31-1.04.19-.41-.2-1.28-.19-.06-1.26,1.02-.89,2.48-2.15,4.33-3.17,1.2-.66,1.21-1.06.91-1.34-.54-.51-1.11.23-2.32.17-.94-.05-1.38-.39-2.58-1.31-1.82-1.41-1.45-3-4.43-4.9-3.08-1.97-3.45-6.94-.43-9.43,6.18-5.1,15.6-4.61,17.97,0,1.58,3.08-.76,8.75-2.32,10.73-.55.7-.79.81-.43,1.34.31.46,1.15-.6,1.42-1,2.84-4.28,5.41-13.3-2.22-15.19-4-.99-11.14-.07-15.06,3.15-4.08,3.35-2.74,5.89-.24,15.64.65,2.53-3.76,5.05-4.99,1.94-.63-1.58-2.05,1-3.54.78-1.94-.29-4.7-1.33-4.62-3.7.08-2.31-1.06.55-2.5-1.33-.62-.8-1.1-1.61-1.32-2.43Z"/>
</svg>