<?xml version="1.0" encoding="UTF-8"?>
<svg id="Layer_1" data-name="Layer 1" xmlns="http://www.w3.org/2000/svg" viewBox="0 0 310.52 491.06">
  <defs>
    <style>
      .cls-1 {
        fill: #fff;
      }
    </style>
  </defs>
  <path id="intelligence" class="cls-1" d="M100.1,69.06c-2.16-1.98-4.58-3.27-5.05-3.87-1.44-1.86,4.35,1.49,5.59,2.69,1.48,1.42,3.06,2.58,4.21,5.36.49,1.17-2.42-2.03-4.76-4.18ZM107.55,61.74c-.55,1-1,.1-.83-2.35.08-1.17-2.6-3.28-3.8-4.07-.9-.59-3.26-1-4.56-1.45-1.07-.37-1.32-.84-.36-.84,2.75,0,2.73.07,4.08.7,2.5,1.16,4.5,4.29,7.08,2.71,1.2-.73,3.43-2.09,5.74-3.09,4.22-1.83,8.7-3.44,7.53-4.7-1.24-1.34-3.09-2.93-3.84-2.93-3.37,0-4.73,3.6-7.53,4.56-1.58.54-3.8.48-4.92-.31-1.5-1.07,3.15.27,4.38-.3,1.58-.72,2.84-2.76,4.34-3.74,1.07-.69,2.65-1.2,3.1-2.13.47-.97-.18-3.82.39-4.72,1.54-2.41.27,3.06,1.33,5.39,1.78,3.9,7.47,4.54,9.87,1.66,2.07-2.49,8.55-4.35,8.61-7.28.03-1.33-1.66-3.32-2.19-4.53-.71-1.64-3.36-4.25-1.68-5.02,1.54-.71,1.62,1.78,3.06,4.68,2.47,4.98,5.87,12.02,5.28,12.29-1.58.73-1.9-3.52-3.49-4.49-1.01-.62-2.03.26-3.52,1.31-1.28.9-3.01,1.87-4.26,2.98-1.18,1.06-2.28,2-3.13,2.43-1.19.6-2.54.61-3.66,1.21-2.63,1.44-4.95,3.41-7.94,4.21-2.31.62-6.13,2.52-7.87,4.35-.67.7-.89,2.82-1.24,3.45ZM128.78,87.84c-1.04.14,2.9-3.69.82-4.06-3.08-.54-6.92-4.5-7.94-7.12-.89-2.29-2.28-.84-2.5.38-.44,2.38-5.75,1.58-7-.1-2.44-3.27-2.09-7.72-.38-11.3,1.05-2.19,5.95-6.83,7.95-8.27,2.04-1.48,6.59-3.62,11.39-6.21,2.24-1.21,4.27-3.14,5.15-3.44.13-.04.29.31.16.57-.21.46-.83,1-.63,1.29.16.23.71.31,1.05.51.29.17.42.47.24.47-5.85.1-16.88,8.05-18.28,9.48-.84.85-1.37,1.65-1.75,2.5-.27.6,14-7.93,13.82-7.24-.1.37-14.45,10.07-14.78,10.34-5.7,4.77-.1,10.36.44,10.82,2.69,2.33-2.64-4.92-1.14-6.53.65-.69.65,1.7,1.19,2.44,1.09,1.48,1.61,2.7,2.83,1.54,1.85-1.78-4-2.62-1.79-6.35,1.37-2.31,5.86-5.45,8.15-6.49,3.67-1.67,6.63-5.59,9.53-6.68,5.72-2.15,8.2,1.34,12.3-2,1.67-1.36.43-5.57.89-7.67.48-2.18,4.05-4.28,5.62-7.44,2.83-5.66,3.75-12.74.87-15.75-2.77-2.91-3.43,1.34-4.98,2.61-1.52,1.23-3.44.91-4.32,1.79-1.69,1.7-.15,6.13,3,7.97,2.38,1.39.93,2.17-1.97-.1-3.66-2.88-6.66-9.55-10.15-10.05-5.48-.78-10.46,6.38-12.22,10.77-.79,1.96.87,2.98,4.49,2.76.29-.02,1.81-.18,1.59.03-.38.36-3.16,1-4.42.62-4.25-1.3-3.32-5.45-7.61-5.07-5.95.52-10.54,4.26-11.04,6.59-.97,4.42,3.99.97,3.99,2.08,0,.93-.88.61-4.83,1.52-2.42.56-5.66.6-7.73,2.07-2.58,1.84-4.97,4.78-5.84,7.84-.16.55-1.17,4.39.18,5.42,1.88,1.44,4.04.85,6.77,1.8,1.04.36,1.79,1.84,2.76,2.49,1.55,1.04,3.09,1.36,2.9,2.07-.15.58-1.04.92-2.49-.14-1.73-1.27-4.32-4.06-8.01-4.28-3.91-.24-7.33,1.29-7.66,2.07-.72,1.67,1.51,2.92,2,4.7.47,1.7-.81,3.92-.71,5.5.04.63,1.25,3.12,4.53,3.93,1.38.34,3.86-.04,5.79-.56.89-.24-.67-1.78-2.15-2.75-1.47-.97-4.18-.41-3.45-1.19.16-.18,2.73-.22,4.61.83.87.48,4.01,3.99,8.65,6.27,2.85,1.4,4.27.8,5.49,1.45,1.55.82,2.89,1.68,3.94,2.12,1.27.53,2.11.59,2.28.98.26.61-1.03.22-3-.59-1.19-.49-2.63-1.29-4.09-1.68-3.4-.93-5.76-1.41-9.17-3.88-2.28-1.66-5.59-.05-8.6-.16-2.97-.1-3.73-.9-3.68.1.12,2.27.87,5.62,3.57,5.62,1.04,0,1.32.79,2.38,1.06,1.18.31,2.67.29,2.79.62.12.31-1.21.52-2.79.26-1.4-.23-3.07-.93-3.16-.62-.41,1.48,1.58,5.16,2.75,6.11,2.05,1.68,3.44,1.2,5.54,1.97,3.66,1.33,8.01,3.16,11.13,3.26,1.53.05,9.53,1.24,16.91-2.9,1.68-.94,1.41-5.19-.17-4.97Z"/>
</svg>