<?xml version="1.0" encoding="UTF-8"?>
<svg id="Layer_1" data-name="Layer 1" xmlns="http://www.w3.org/2000/svg" viewBox="0 0 310.52 491.06">
  <defs>
    <style>
      .cls-1 {
        opacity: .3;
      }

      .cls-1, .cls-2 {
        fill: #fff;
      }
    </style>
  </defs>
  <g id="obesity">
    <path class="cls-1" d="M201.51,298.89c-1.65-.86-1.75-5.38-5.22-2.89-4.17,2.99-10.2,6.19-15.66,7.1-8.45,1.41-15.52,1.95-24.13,1.64-1.64-.06-4.23-1.14-6.65-2.73-2.29-1.52-1.82,1.04-8.12-2.38-1.05-.57-1.76-1.71-2.76-2.22-1.26-.64-2.77-.65-3.8-1.25-1.17-.69-2.15-1.32-2.88-1.85-2.35-1.73-2.12-.86-2,1.58.11,2.28-.38,6.07-.79,7.77-.71,2.94-1.15,5.28-.87,8.44.13,1.46-1.12,3.02-.95,4.43.18,1.5,1.68,2.85,1.93,4.3.3,1.71-.11,3.51-.78,5.05-.61,1.41,2.1,2.6,2.24,3.88.39,3.57,3.14,6.71,4.74,9.96,3.12,6.32-1.15,6.13-1.39,7.64-.18,1.1,3.3,2.83,4.49,4.38,2.55,3.33,4.79,1.22,4.79,2.87,0,.39-1.67.93-3.58.89-1.87-.04-3.3-2.36-5.95-3.7-3.33-1.69-5.1,2.97-10.74,2.49-3.69-.32-9.96-7.24-11.73-10.64-.82-1.59-1.09-4.66-.72-8.35.07-.74-1.01-1.52-1.21-2.26-.89-3.35-.86-5.67-.17-9.9.38-2.34-.5-4.82.15-7.92.36-1.68,1.3-2.82,1.41-4.46.07-1.04.18-1.99.33-2.91.25-1.49,1.13-2.99,1.63-4.51.3-.92.12-1.78.53-2.85.58-1.52,1.26-3.24,2.07-5.3.45-1.15.71-2.93.91-4.87.08-.74.97-1.6,1.04-2.37.08-.9-.66-1.71-.56-2.56.19-1.67.42-3.17.8-4.19.71-1.93-1.17-6.94-.42-8.8.98-2.46,2.55-3.65,6.49-3.65,1.94,0,4.18-2.75,7.95,1.77,1.31,1.57,2.59,3.45,4.36,4.91,2.4,1.98,4.19,2.09,7.78,5.28.88.79.25,1.22,3.39,1.68,1.62.23,2.71,1.78,5,1.58,1.91-.17,3.41,1.38,4.54,1.36,2.25-.04,4.22,1.07,6.2,1.16,2.27.11,4.52-.78,6.74-.77,1.1,0,2.45.67,3.6.59,1.27-.09,2.36-.93,3.74-1.17,6.26-1.08,12.35-8.09,18.47-9.89,1.18-.35,4.09-2.3,7.02-6.01,4.19-5.31,7.64-12.93,11.65-10.88,1.75.89,5.7.15,6.83,2.32,1.36,2.62-.6,8.87-1.09,10.74-1.95,7.33-2.42,13.93-1,20.67.44,2.1,2.42,4.13,3.17,6.11l.23.7c3,4.16,1,8.46,1.93,13.91,1.44,8.44,2,15.51,1.72,24.12-.05,1.64-1.12,4.24-2.71,6.65-1.51,2.3.28,5.95.28,5.95.04,2.09.94,3.74-.29,7.69-.82,2.62-.31,3.94-1.5,6.33-.58,1.17-.8,2.45-1.41,3.46-1.65,2.75-3.79,4.75-5.87,6.42-1.44,1.15-3.29,1.87-4.83,2.73-1.69.95-2.09,3.23-4.01,3.32-4.92.23-10.25,1.62-14.25-1.28-2.53-1.82-4.51-1.72-6.14-3.55-1.91-2.14-4.25-4.04-6.75-5.29,1.73.99,1.29,3.73,1.29,6.84,0,3.32-2.56,4.96-2.64,8.47-.06,2.87-1.82,1.82-2,9.65-.1,4.14-1.93,2.59-4.19,2.79-1.05.09-3.73,1.65-4.01-3.06-.24-4.09-3.07-10.8-3.37-12.93-.38-2.73-.51-6.54-.59-10.15-.04-1.74-.41-3.61-.14-4.96,1.28-6.19,7.25-11.18,10.74-11.2,3.36-.02,8.18.53,12.56,1.78,2.91.83,3.23,2.23,7.74,2.56,2.45.18,2.73-.22,4.51-.87,1.52-.55,1.18-2.1,2.41-3.2,1.8-1.6,3.45-1.21,4.18-2.47.63-1.1-.59-3.08.18-5.22l1.02-1.36c.23-1.62-.78-2.72-.99-5-.18-1.91,1.37-3.41,1.35-4.54-.05-2.25,1.06-4.23,1.15-6.2.11-2.27-.8-4.52-.79-6.73,0-1.1.66-2.45.58-3.6-.09-1.27-.94-2.35-1.18-3.74-1.22-6.98-1.51-12.15-4.04-15.7l-.97-1.63Z"/>
    <path class="cls-2" d="M135.37,338.85c1.71.4,6.9-.09,10.78-.4,1.98-.16,3.1-.92,2.12.6-2.18,3.4-2.47,8.77-.9,11.19,1.03,1.58,3.82.79,4.03,1.22,2.33,4.83,9.84,9.35,15.15,8.55,6.02-.9,10.63-.12,17.96-3.05,1.15-.46,3.05-.43,5.14-1.1,2.2-.7,4.12-1.87,6.48-2.75,3.55-1.32,7.35-2.36,8.79-3.12,3.72-1.96,15.7-17.57,18.45-24.93,3.79-10.14,3.84-27.17.12-33.48-4.82-8.18-9.4-4.29-17.79-7.71-2.98-1.21-6.19-2.51-8.55-4.77-.99-.95,1.06-6.48-1.87-7.31-6.56-1.86-13.13,1.92-19.98,2.26-10.37.51-25,2.93-29.24-5.97-3.32-6.98.98-19.96,4.11-17.17,2.57,2.29,7.43,9.54,9.77,11.97,6.51,6.73,14.62,12.23,25.16,8.6,6.61-2.28,11.31-5.94,15.9-10.03,3.08-2.74,6.06-4.83,9.73-9.99,6.26-8.79,10.95-17.17,7.45-31.57-2.2-9.04-13.56-14.49-22.48-11.19-9.8,3.63-13.34-9.29-16.01-17.47-3.62-11.11-5.99-43.31-9.51-50.94-3.06-6.62-5.99-11.26-10.95-16.73-7.2-7.94-18.41-10.91-28.78-11.7-10.29-.78-22.1,3.75-31.54,7.41-13.35,5.17-19.08,3.49-18.32,8.32.65,4.09,7.42,1.76,14.01-.84,11.34-4.47,29.12-13.06,39.35-9.48,10.48,3.67,24.65,10.35,29.85,28.61,2.93,10.29,4.71,27.79,6.38,41.05,1.43,11.42,3.98,17.3,10.16,25.07,2.18,2.74,3.98,5.11,5.23,7.65.44.89,2.3,2.39,2.59,3.35.28.92-.66,4.82-.73,6.23-.15,3.09.09,4.55-2.14,7.18-.63.74-.7,2.34-1.43,2.91-1,.79-2.66.52-3.93.96-6.25,2.19-15.56-.1-23.15-.73-10.02-.83-12,1.01-17.69,13.33-3.56,7.72-1.94,19.66,6.46,24.74,6.37,3.85,15.09,5.42,21.94,3.96,3.24-.69,13.39-1.38,17.07-2.93,1.77-.74-1.93,1.53-1.93,4.09s4.52,3,5.17,3.36c10.03,5.56,15.04,17.72,15.33,19.97.25,1.9,1.67,1.9,1.29,2.87-.46,1.18-1.97,3.4-2.87,4.52-2.01,2.51-4.03.67-10.94,8.25-2.64,2.89-8.2,4.15-13.94,5.51-1.64.39-2.43,1.15-3.53,2.67-.76,1.05-2.43-.03-4.09-.06-1.33-.03-2.71.5-3.54.91-2.14,1.07-4.03,2.51-2.99-.47.27-.78-.3-1.83-.92-2.38-1.16-1.03-3.73-.5-5.13-.38-9.06.74-13.6,3.08-24.9,4.31,0,0,1.22,2.62,1.73,3.56.44.82,2.09,3.47,2.09,3.47Z"/>
  </g>
</svg>