<?xml version="1.0" encoding="UTF-8"?>
<svg id="Layer_1" data-name="Layer 1" xmlns="http://www.w3.org/2000/svg" viewBox="0 0 310.52 491.06">
  <defs>
    <style>
      .cls-1 {
        fill: #fff;
      }
    </style>
  </defs>
  <path id="outline" class="cls-1" d="M162.71,416.11c14.72,2.1,44.23-1.66,44.23-1.66,0,0-1.95,3.64-5.94,8.15-8.87,10.01-21.75,26.77-2.84,35.02,11.58,5.05,17.15,5.2,28.16,12.41,8.07,5.29,20.82,10.55,30.75,9.25,11.19-1.47,17.73-4.41,11.44-14.55-1.46-2.36-5.31-4.96-8.42-8.58-6.32-7.36-14.5-15.67-18.27-18.22-7.82-5.29-2.98-7.4,1.76-10.83,21.33-15.43,39.53-28.2,47.71-44.52,9.96-19.87,11.86-37.78,4.1-44.5-9.58-8.3-23.89-16.86-59.75-10.2-8.52,1.59.24-28.46.56-37.98.8-23.57-3.76-63.44-4.72-82.87,10.87,11.51,32.07,24.53,42.46,17.64,12.14-8.05,13.26-24.6,8.59-39.34-3.8-12.01-11.84-22.35-17.66-29.82-6.62-8.49-3.31-8.42.96-18.31,1.2-2.79,4.62-5.04,6.55-10.07,1.07-2.79,1.37-6.07,1.8-8.92.6-3.96,2.06-5.6.83-6.44-2.79-1.89-3.87-.11-6.31,4.47-2.65-5.84,1.31-14.73-5.89-13.6-3.14.49-2.82,10.91-4.02,16.14.08-6.3-10.82-17.79-13.51-15.96-2.43,1.65-2.14,3.86-.98,5.73.79,1.28,2.2,1.87,2.54,4.09-1.44-2.46-9.12-6.87-11.03-4.65-.87,1.01-.48,2.39.47,3.75.42.59,1.34.88,1.64,1.64.25.63.16,1.75.33,2.37.17.63.6.76.65,1.39.04.52-.77,1.55-1.06,2.62-.33,1.19-.16,2.43-.49,2.95-.08-5.57-.82-12.2-5.49-11.05-1.5.37-4.29,9.36-4.75,13.18-.57,4.83.54,7.13-.25,6.42-2.07-1.84-4.42-3.72-10.64-5.77-6.66-2.19-10.37-1.81-14.89-3.01-2.65-.71-1.56-2.84.53-4.55,8.43-6.89,23.15-29.58,21.28-45.52-3.1-26.56-32.94-57.99-61.62-59.32-26.31-1.22-36.48,10.67-60.31,23.51-8.1,4.37-15.35,18.74-17.32,32.03-1.39,9.37,2.04,15.5,1.53,21.61-.65,7.86-10.15,15.17-10.15,20.3,0,1.79,2.49,1.98,3.13,4.21,1.89,6.6-1.49,7.03-.07,10.42.34.82,1.34,1.9,1.66,2.63.86,2.01-1.38,1.99-.02,4.46,1.75,3.17,5.78,1.75,7.2,4.91,1.04,2.32-.54,3.71.11,6.33,1.91,7.63,11.83,5.52,8.7,6.84-5.73,2.41-10.32,4.67-11.54,6.06-10.21,11.67-32.3,67.42-29.38,77.92,2.61,9.39,18.31,28.43,30.16,27.24,5.23-.52,8.67-5.08,12.93-7.9-.49,16.38,2.83,35.72,4.68,54.18-3.43-2.01-10.46-5.16-16.97-7.82l-8.09-3.64c-34.44-12-49.88-5.7-60.61,1.06-8.69,5.47-9.51,23.47-2.66,44.61,5.62,17.37,21.69,32.73,40.44,51.21l11.27,12.14c6.53,8.37-28.52,5.39-36.39,7.96-15.87,5.18-2.18,24.61,3.42,28.83,6.15,4.65,21.4,2.34,39.28.9,16.1-1.3,34.03,4.14,37.7-6.31,3.9-11.11-6.11-31.66-5.66-37.36,0,0,34.4,13.32,58.16,16.71Z"/>
</svg>