<?xml version="1.0" encoding="UTF-8"?>
<svg id="Layer_1" data-name="Layer 1" xmlns="http://www.w3.org/2000/svg" viewBox="0 0 310.52 491.06">
  <defs>
    <style>
      .cls-1 {
        fill: #fff;
      }
    </style>
  </defs>
  <path id="sex" class="cls-1" d="M213.69,322.38c-2.17-.13-5.14,1.97-7.7,1.9-3.23-.09-7.73,1.2-9.65,2.87-2.08,1.82-1.7,3.62-4.24,3.92-1.34.16-1.81,2.23-5.37,1.4-8.27-1.93-7.46-11.26-21.98-11.26s-15.27,10.32-23.59,13.65c-1.46.59-1.24-1.1-2.24-2.34-.68-.83-2.36-1.29-3.12-2.05-.86-.86-1.8-1.54-2.72-1.44-2.69.29-4.11-3.83-8.98-3.83-3.32,0-7.05-.21-8.19,5.85-.64,3.37,1.88,8.5,4.28,11.83.16.23.64.43-.09,1.43-2.83,3.9-2.83,4.19-.24,1.56,1.12-1.14.49.17.58.63.27,1.35.63,3.12,1.22-1.17.06-.46,1.97,2.33,1.71-.44-.24-2.54.32-2.45,1.56-1.71,1.71,1.02,2.05,1.17.29-.78-.96-1.07.23-.93,2.14.34,3.29,2.19,8.78,4.05,11.85,1.46,4.12-3.46,3.36-1.07,7.41-4,6.34-4.58,2.86-1.88,5.56,3.41,1.48,2.89,4.38,7.13,5.24,8.97,1.25,2.69-.26,6.58-.95,7.9-3.8,7.31,2.24,7.8,1.77,17.34,0,0,10.88.37,16.07.11.1-1.81.22-3.77.36-5.84.18-2.64,1.09-4.26,1.39-7.13.34-3.28-1.83-7.16-1.27-10.43.76-4.39,3.14-6.58,5-10.48.98-2.05,1.04-5.18,1.63-6.38,11.41,2.34,8.14,6.56,14.92,6.31,2.4-.09,6.01-1.76,8.19-4.6,2.05-2.68,1.07,1.71,2.1.08.25-.4,2.7-1.67,2.24-.22-.24.74-.49,6.09,1.3,1.99.33-.75,1.83.07,2.16.59.61.98.75,2.2,1.27,1.9.93-.53-1.16-3.88-.34-4.48,2.62-1.93,5.17-5.95,5.61-8.39.92-5.12-1.3-8.24-5.17-8.48ZM148.27,336.95c-.58.21-2.76,1.9-4.97,2.6-1.6.51-3.32.22-3.95-.21-4.87-3.34-4.56-2.27-7.7-3.34-3.11-1.06-3.77,1.04-7.17.22-2.04-.5-3.53-3.67-2.92-5.04.39-.88.61-1.2,1.97-.91.98.22,2.01-.04,3.25.24,2.79.64,3.75,2.49,5.12,2.49,2.11,0,3.51,2.1,5.17,2.63.42.13.01.75.34,1.07,1.72,1.7,4.52,2.8,7.85-.72,2.68-2.84,6.83-.4,3.02.96ZM170.5,338.85c-.77,2.22-.17,2.75-1.17,4.92-.79,1.72-2.55,4.54-2.63,6.41-.2,4.7-.02,10.01.39,14.45.16,1.74.11,2.37,2.03,2.89,2.5.67,6.44-4.69,5.72-3.18-2.78,5.8-2.78,9.58-2.78,13.57h-11.11c.1-4.05-.68-5.38-1.75-8.3-.36-.99-2.13-3.18-2.29-4.19-.5-3.09,1.86,1.77,6.68,2.1,2.88.2.78-5.85,1.66-10.19.88-4.36.8-9.02-1.8-12.81-1.22-1.78-2.16-5.15-3.02-7.17-.51-1.18-1.89-3.24-2.88-4.15-1.26-1.16-2.39-.54-4.92-1.41,3.39-1.11,8.13-.34,11.69-.34,3.18,0,6.79-.37,9.95-.12,2.03.16,5.83.65,7.55,1.59-7.51,0-9.62,1.09-11.31,5.94ZM211.3,330.71c-3.4.82-4.79,4.85-7.92,3.66-3.1-1.18-4.75-1.59-9.34.78-1.6.83-1.95,2.68-3.55,2.97-2.18.4-4.8-1.39-5.8-1.75-3.8-1.37-.17-1.2,2.05-.97,4.83.49,6.57-1.08,8.29-2.79,1.8-1.79,2.49-3.26,5.07-3.26,1.36,0,4.53-1.07,7.31-1.71,1.24-.28,2.19-.83,3.17-1.05,1.36-.3,2.58-.13,2.97.76.6,1.37-.2,2.87-2.24,3.36Z"/>
</svg>