<?xml version="1.0" encoding="UTF-8"?>
<svg id="Layer_1" data-name="Layer 1" xmlns="http://www.w3.org/2000/svg" viewBox="0 0 310.52 491.06">
  <defs>
    <style>
      .cls-1 {
        fill: #fff;
      }
    </style>
  </defs>
  <path id="taysachs" class="cls-1" d="M156.65,129.44c.45-7.29,3.85-12.48,2.53-15.46-2.84-6.37-3.72-10.16-3.2-14.88.32-2.89-4.88-1.95-5.92-8.12-.77-4.56.59-6.52,4.12-8.56,2.39-1.38,5.87-3.22,9.47-1.45,2.38,1.17,4.36,4.44,5.97,6.56,6.03,7.93,3.82,18.09,1.55,28.23-.89,3.98-3.56,10.36-4.56,13.88-1.01,3.55-1.6,2.2-6.57,2.2-2.95,0-3.53.07-3.37-2.41Z"/>
</svg>